HIERARCHY
ROOT Hips
{
	OFFSET -0.001795 -0.223333 0.028219
	CHANNELS 6 Xposition Yposition Zposition Zrotation Yrotation Xrotation 
	JOINT LeftUpLeg
	{
		OFFSET 0.069520 -0.091406 -0.006815
		CHANNELS 3 Zrotation Yrotation Xrotation
		JOINT LeftLeg
		{
			OFFSET 0.034277 -0.375199 -0.004496
			CHANNELS 3 Zrotation Yrotation Xrotation
			JOINT LeftFoot
			{
				OFFSET -0.013596 -0.397961 -0.043693
				CHANNELS 3 Zrotation Yrotation Xrotation
				JOINT LeftToe
				{
					OFFSET 0.026358 -0.055791 0.119288
					CHANNELS 3 Zrotation Yrotation Xrotation
					End Site
					{
						OFFSET 0.000000 0.000000 0.000000
					}
				}
			}
		}
	}
	JOINT RightUpLeg
	{
		OFFSET -0.067670 -0.090522 -0.004320
		CHANNELS 3 Zrotation Yrotation Xrotation
		JOINT RightLeg
		{
			OFFSET -0.038290 -0.382569 -0.008850
			CHANNELS 3 Zrotation Yrotation Xrotation
			JOINT RightFoot
			{
				OFFSET 0.015774 -0.398415 -0.042312
				CHANNELS 3 Zrotation Yrotation Xrotation
				JOINT RightToe
				{
					OFFSET -0.025372 -0.048144 0.123348
					CHANNELS 3 Zrotation Yrotation Xrotation
					End Site
					{
						OFFSET 0.000000 0.000000 0.000000
					}
				}
			}
		}
	}
	JOINT Spine
	{
		OFFSET -0.002533 0.108963 -0.026696
		CHANNELS 3 Zrotation Yrotation Xrotation
		JOINT Spine1
		{
			OFFSET 0.005487 0.135180 0.001092
			CHANNELS 3 Zrotation Yrotation Xrotation
			JOINT Spine2
			{
				OFFSET 0.001457 0.052922 0.025425
				CHANNELS 3 Zrotation Yrotation Xrotation
				JOINT Neck
				{
					OFFSET -0.002778 0.213870 -0.042857
					CHANNELS 3 Zrotation Yrotation Xrotation
					JOINT Head
					{
						OFFSET 0.005152 0.064970 0.051349
						CHANNELS 3 Zrotation Yrotation Xrotation
						End Site
						{
							OFFSET 0.000000 0.000000 0.000000
						}
					}
				}
				JOINT LeftShoulder
				{
					OFFSET 0.078845 0.121749 -0.034090
					CHANNELS 3 Zrotation Yrotation Xrotation
					JOINT LeftArm
					{
						OFFSET 0.090977 0.030469 -0.008868
						CHANNELS 3 Zrotation Yrotation Xrotation
						JOINT LeftForeArm
						{
							OFFSET 0.259612 -0.012772 -0.027456
							CHANNELS 3 Zrotation Yrotation Xrotation
							JOINT LeftHand
							{
								OFFSET 0.249234 0.008986 -0.001171
								CHANNELS 3 Zrotation Yrotation Xrotation
								End Site
								{
									OFFSET 0.000000 0.000000 0.000000
								}
							}
						}
					}
				}
				JOINT RightShoulder
				{
					OFFSET -0.081759 0.118833 -0.038615
					CHANNELS 3 Zrotation Yrotation Xrotation
					JOINT RightArm
					{
						OFFSET -0.096012 0.032551 -0.009143
						CHANNELS 3 Zrotation Yrotation Xrotation
						JOINT RightForeArm
						{
							OFFSET -0.253742 -0.013329 -0.021401
							CHANNELS 3 Zrotation Yrotation Xrotation
							JOINT RightHand
							{
								OFFSET -0.255298 0.007772 -0.005559
								CHANNELS 3 Zrotation Yrotation Xrotation
								End Site
								{
									OFFSET 0.000000 0.000000 0.000000
								}
							}
						}
					}
				}
			}
		}
	}
}
MOTION
Frames: 17
Frame Time: 0.050000
0.106807 0.890607 0.775862 -1.778577 -5.796962 9.663746 20.784404 2.628990 -26.676488 -6.488363 1.359686 15.319192 7.554046 16.284048 15.918069 0.000000 0.000000 0.000000 -9.814768 1.553350 -32.736520 10.896994 -2.074264 24.488076 -3.936220 -10.615711 1.225752 0.000000 0.000000 0.000000 5.797372 -3.396259 43.607294 -5.023287 1.623815 -25.070477 -5.606840 7.754887 23.746622 19.510839 -4.195150 -43.511708 0.000000 0.000000 0.000000 -11.015925 -35.884880 15.184772 -30.382175 -38.103362 3.843776 30.200317 -57.921413 -14.454680 0.000000 0.000000 0.000000 19.106846 20.147016 11.584762 51.507756 50.357181 16.350407 -2.647554 50.086803 2.138276 0.000000 0.000000 0.000000 
0.104129 0.892015 0.776119 -1.601864 -5.594958 9.773720 20.456109 2.474584 -26.384504 -6.332189 1.284224 14.745344 7.565977 16.321888 15.830072 0.000000 0.000000 0.000000 -9.960064 1.482317 -32.367525 10.807068 -2.028225 23.516207 -4.344960 -11.725413 1.682724 0.000000 0.000000 0.000000 5.935464 -3.468214 43.161856 -5.076879 1.635764 -25.343849 -5.258051 7.655445 23.810488 19.401040 -4.072353 -43.850593 0.000000 0.000000 0.000000 -10.648257 -35.325177 14.842599 -31.192685 -38.965125 4.227088 32.264765 -56.798852 -15.223271 0.000000 0.000000 0.000000 18.334481 19.958750 11.306402 52.978316 51.423328 17.690019 -4.298153 49.018146 1.374740 0.000000 0.000000 0.000000 
0.103036 0.893107 0.777073 -1.472170 -5.557455 10.087609 19.960547 2.361527 -26.597618 -6.343037 1.279886 14.617109 7.580456 16.343567 15.621420 0.000000 0.000000 0.000000 -10.170433 1.432208 -32.257007 10.496448 -1.924760 23.092185 -4.265212 -11.624443 2.004647 0.000000 0.000000 0.000000 6.027548 -3.468886 42.350136 -4.844630 1.586481 -25.235035 -5.192554 7.575306 23.527005 19.205755 -3.879739 -44.288538 0.000000 0.000000 0.000000 -10.437151 -34.564189 14.463718 -32.371814 -39.764653 4.727320 32.891015 -55.727658 -15.162036 0.000000 0.000000 0.000000 18.534630 19.977134 11.344225 52.953705 51.429237 17.690612 -4.290257 48.838943 1.373506 0.000000 0.000000 0.000000 
0.103373 0.892878 0.778498 -1.249812 -5.384758 10.400228 19.403656 2.195490 -26.653424 -6.576693 1.328426 14.521878 7.736438 16.573811 14.709838 0.000000 0.000000 0.000000 -10.478137 1.346736 -32.158750 10.033283 -1.782544 22.435190 -4.356058 -11.902036 2.243247 0.000000 0.000000 0.000000 5.997368 -3.448947 41.686597 -4.634803 1.541408 -25.452430 -4.885853 7.281463 23.393626 19.155695 -3.783654 -44.711415 0.000000 0.000000 0.000000 -10.724890 -33.799518 14.249269 -33.473667 -40.386331 5.176611 33.379019 -54.737252 -15.002975 0.000000 0.000000 0.000000 18.815484 19.773705 11.227404 53.110152 51.317658 17.684039 -3.494702 49.137725 1.742568 0.000000 0.000000 0.000000 
0.105009 0.893006 0.779903 -1.197160 -5.538206 10.806773 19.267602 2.182499 -26.807173 -7.059512 1.459987 14.532191 8.003919 16.955858 14.313177 0.000000 0.000000 0.000000 -10.778376 1.316867 -32.471775 9.912841 -1.730970 22.178846 -4.386239 -12.157360 2.878437 0.000000 0.000000 0.000000 6.128668 -3.472472 41.476202 -4.620292 1.530601 -25.834492 -4.783810 7.319723 23.523759 19.100803 -3.738439 -44.825703 0.000000 0.000000 0.000000 -10.510274 -33.334204 14.010939 -33.919067 -41.118727 5.473094 33.561529 -53.994966 -14.804495 0.000000 0.000000 0.000000 18.815465 19.798195 11.244209 53.513160 51.686369 18.074032 -3.293022 49.250554 1.866666 0.000000 0.000000 0.000000 
0.107723 0.893195 0.780545 -0.952150 -5.642046 11.157884 18.872727 2.121647 -27.162290 -7.367494 1.548716 14.629241 8.138643 17.155788 14.327367 0.000000 0.000000 0.000000 -11.215230 1.238711 -32.507970 9.702656 -1.648770 21.569195 -4.282908 -12.064728 3.407427 0.000000 0.000000 0.000000 6.098775 -3.438627 41.299977 -4.466834 1.495917 -25.752794 -4.732577 7.083319 23.050813 18.746225 -3.539390 -45.081089 0.000000 0.000000 0.000000 -10.912704 -33.028842 14.036397 -34.590288 -41.242813 5.735226 34.218220 -53.873152 -15.034097 0.000000 0.000000 0.000000 19.549664 19.818563 11.342419 53.203652 51.587760 17.861901 -1.762264 49.371979 2.530996 0.000000 0.000000 0.000000 
0.111242 0.893309 0.780287 -0.994532 -5.792687 11.593036 18.628034 2.122614 -27.659420 -7.671447 1.648894 14.874403 8.640187 17.904518 14.005915 0.000000 0.000000 0.000000 -11.511395 1.211016 -32.819133 9.758309 -1.641746 21.093800 -4.311901 -12.255798 3.822498 0.000000 0.000000 0.000000 6.185154 -3.457763 41.291130 -4.488447 1.495008 -26.047018 -4.436454 7.346138 23.222100 18.671945 -3.355161 -45.672981 0.000000 0.000000 0.000000 -10.616397 -32.776698 13.836163 -35.322697 -42.123562 6.175468 34.297828 -54.052200 -15.098988 0.000000 0.000000 0.000000 19.318299 19.721890 11.302867 53.836944 52.356507 18.633081 -1.649714 49.236513 2.614831 0.000000 0.000000 0.000000 
0.115116 0.893418 0.779031 -0.836142 -5.859261 11.913794 17.818999 1.967923 -28.137916 -7.644858 1.646125 14.914597 8.891752 18.291826 13.622176 0.000000 0.000000 0.000000 -12.069648 1.099738 -32.715429 9.599245 -1.562199 19.924889 -4.178539 -12.130768 4.484836 0.000000 0.000000 0.000000 5.998867 -3.373387 41.271812 -4.235308 1.440266 -26.063568 -4.485671 7.508419 23.022215 18.365100 -3.177879 -45.829518 0.000000 0.000000 0.000000 -10.920985 -32.727381 13.871968 -35.782897 -42.287910 6.368927 35.304013 -54.686075 -15.830542 0.000000 0.000000 0.000000 19.693923 19.312257 11.200743 54.268921 52.485963 18.926449 -0.479365 49.298896 3.175931 0.000000 0.000000 0.000000 
0.118604 0.892838 0.777186 -0.735396 -5.791846 12.150671 17.399548 1.881312 -28.490336 -7.576925 1.629301 14.997418 8.860800 18.265093 12.894031 0.000000 0.000000 0.000000 -12.418742 1.026112 -32.966413 9.606122 -1.558492 19.502827 -4.043437 -11.884308 4.689207 0.000000 0.000000 0.000000 5.921156 -3.386768 41.767131 -4.324030 1.457903 -26.103180 -4.402436 7.328444 22.859285 18.325620 -3.165000 -45.777896 0.000000 0.000000 0.000000 -11.461701 -32.632933 13.994455 -35.939278 -42.190831 6.409515 35.714590 -55.596936 -16.318258 0.000000 0.000000 0.000000 19.632691 19.218746 11.110344 54.017778 52.287387 18.698948 0.311659 49.770849 3.571057 0.000000 0.000000 0.000000 
0.121256 0.892799 0.775028 -0.800632 -5.910296 12.478671 17.130179 1.839968 -28.690043 -7.445463 1.591279 14.838419 8.952502 18.403911 12.553840 0.000000 0.000000 0.000000 -12.737051 0.981894 -33.059690 9.852996 -1.595167 18.840248 -3.879853 -11.632200 5.065997 0.000000 0.000000 0.000000 5.647223 -3.254398 41.711050 -4.346024 1.455276 -26.311336 -4.366017 7.535234 22.930018 18.446483 -3.112979 -46.168290 0.000000 0.000000 0.000000 -12.174742 -33.085574 14.367887 -35.530285 -41.851822 6.194419 35.658175 -56.072171 -16.464839 0.000000 0.000000 0.000000 19.735092 18.868577 10.985132 53.603065 51.707785 18.136695 1.326725 50.259787 4.106656 0.000000 0.000000 0.000000 
0.122752 0.892480 0.772752 -0.997391 -5.796834 12.295117 17.192249 1.832362 -28.503737 -7.267053 1.527952 14.619582 8.801701 18.176035 12.392485 0.000000 0.000000 0.000000 -12.541510 1.001337 -32.664033 9.680841 -1.534719 18.210567 -3.773709 -11.507093 5.536835 0.000000 0.000000 0.000000 5.488463 -3.220485 42.044649 -4.307138 1.451790 -26.032158 -4.589181 7.327708 22.660471 18.239272 -3.075703 -45.954137 0.000000 0.000000 0.000000 -12.429505 -33.049594 14.426832 -35.622986 -41.553972 6.165568 35.279509 -56.490375 -16.395670 0.000000 0.000000 0.000000 19.170135 18.766087 10.757098 53.757077 51.078726 17.910909 2.034928 50.766522 4.449343 0.000000 0.000000 0.000000 
0.123435 0.892529 0.770629 -1.254303 -5.811555 12.286751 17.603569 1.929715 -28.403376 -7.260190 1.538309 14.807485 8.599826 17.856719 12.136914 0.000000 0.000000 0.000000 -12.649957 0.983065 -32.699878 10.248346 -1.660346 17.807374 -3.698753 -11.433836 5.895743 0.000000 0.000000 0.000000 5.300504 -3.150660 42.259522 -4.185783 1.425933 -26.227404 -4.678316 7.537645 22.864781 18.455196 -3.077465 -46.242096 0.000000 0.000000 0.000000 -12.571757 -33.349172 14.567676 -35.156309 -41.462667 5.992009 34.128562 -56.706132 -15.863150 0.000000 0.000000 0.000000 18.871081 18.647975 10.688830 53.331227 50.699633 17.494026 1.785847 51.022795 4.372806 0.000000 0.000000 0.000000 
0.123626 0.892804 0.768986 -1.506693 -5.975901 11.996745 17.854479 1.986234 -27.983058 -7.129419 1.505707 14.682904 8.655346 17.916305 12.567036 0.000000 0.000000 0.000000 -12.410674 1.040466 -32.262554 10.181271 -1.613720 17.351168 -3.639307 -11.378135 6.153363 0.000000 0.000000 0.000000 5.044024 -2.995010 42.050240 -4.253794 1.441072 -26.061213 -4.889098 7.692094 22.808035 18.288935 -3.056455 -46.049737 0.000000 0.000000 0.000000 -12.307671 -33.609708 14.595105 -35.103224 -41.254930 5.921119 33.213441 -56.832922 -15.439178 0.000000 0.000000 0.000000 18.665548 18.430174 10.537419 53.519692 50.291301 17.365801 2.020280 50.996463 4.474153 0.000000 0.000000 0.000000 
0.123766 0.893728 0.767858 -1.655036 -6.212089 11.486368 17.942734 2.013236 -27.565298 -7.054988 1.495995 14.675204 8.477489 17.607101 12.678763 0.000000 0.000000 0.000000 -12.556071 1.009188 -31.529442 10.394324 -1.629011 16.811153 -3.570765 -11.253351 6.247861 0.000000 0.000000 0.000000 5.024186 -2.929425 41.916090 -4.609812 1.516416 -26.120371 -5.175461 7.886995 22.912412 18.565199 -3.291810 -45.422034 0.000000 0.000000 0.000000 -12.061299 -33.689654 14.521772 -34.522374 -41.732171 5.892261 31.283656 -56.147514 -14.211876 0.000000 0.000000 0.000000 18.381901 18.267395 10.397923 53.606277 50.212902 17.367818 1.253224 51.034043 4.120519 0.000000 0.000000 0.000000 
0.123796 0.895250 0.767103 -1.484728 -6.437890 10.958557 17.758813 1.937879 -26.852023 -7.006503 1.475086 14.361149 8.256670 17.235307 13.079647 0.000000 0.000000 0.000000 -12.836905 0.943847 -30.640222 10.141829 -1.542136 16.391309 -3.355918 -10.833167 6.403586 0.000000 0.000000 0.000000 4.748587 -2.749466 41.638273 -4.760315 1.548243 -26.511372 -5.439086 7.872631 23.147429 18.411648 -3.313672 -45.296626 0.000000 0.000000 0.000000 -11.909560 -34.124580 14.691869 -33.747856 -42.123882 5.778968 30.670875 -55.088170 -13.591109 0.000000 0.000000 0.000000 18.685124 18.240816 10.402585 53.235422 50.286784 17.177813 0.871914 51.434039 3.983448 0.000000 0.000000 0.000000 
0.123850 0.896217 0.766469 -1.440582 -6.531324 10.463841 17.575361 1.886463 -26.515415 -7.096318 1.516173 14.615051 8.410176 17.462059 13.262339 0.000000 0.000000 0.000000 -13.007215 0.894617 -29.986172 10.078696 -1.520991 16.356612 -3.249599 -10.639479 6.558768 0.000000 0.000000 0.000000 4.971678 -2.800126 41.262873 -5.324390 1.666099 -26.730242 -5.701786 7.566183 23.193555 17.977754 -3.324866 -44.708275 0.000000 0.000000 0.000000 -10.870185 -33.947994 14.382928 -33.444325 -43.029352 5.950938 30.114591 -54.671985 -13.166082 0.000000 0.000000 0.000000 18.288643 18.325693 10.259056 53.546929 50.682606 17.555862 -0.309573 52.543391 3.517410 0.000000 0.000000 0.000000 
0.123808 0.897329 0.765899 -1.194278 -6.607155 9.843794 17.334204 1.814726 -26.103316 -7.494441 1.629918 14.741145 8.487008 17.571775 13.383326 0.000000 0.000000 0.000000 -13.358116 0.806031 -29.285522 9.857663 -1.476415 16.668437 -3.280091 -10.662011 6.455054 0.000000 0.000000 0.000000 4.972767 -2.752346 40.828036 -5.292134 1.664053 -27.022942 -5.885276 7.803196 23.218784 17.811877 -3.246700 -44.749221 0.000000 0.000000 0.000000 -10.214075 -34.199724 14.265459 -33.328663 -43.974940 6.178218 30.880378 -54.236478 -13.495172 0.000000 0.000000 0.000000 18.009191 18.152247 10.146173 54.156194 51.432518 18.310248 -1.744166 52.931457 2.906755 0.000000 0.000000 0.000000 
